<svg width="28" height="56" xmlns="http://www.w3.org/2000/svg" version="1.1" xml:space="preserve">
 <g>
  <title>Layer 1</title>
  <path fill="#ffffff" d="m38.71588,-4.3369l-11.74727,-0.28169l0,-4l-19.04225,1.25449c-1.61404,-0.70175 -3.22807,-1.40351 -4.84211,-2.10526l-3.23775,1.68421c3.44211,-4.22535 -25.8638,5.42478 -19.17366,5.29253l1.47887,62.10017c0,1.91 17.32865,-1.46558 19.23865,-1.46558l42.67763,2.8169c1.91,0 3.60485,-4.3709 3.60485,-6.2809l4.85916,-52.59313c0,-0.955 -2.97653,-2.56044 -6.19181,-3.92712c-1.60764,-0.68334 -3.27497,-1.307 -4.65976,-1.75982c-1.38479,-0.45282 -2.48705,-0.7348 -2.96455,-0.7348zm-28.78952,4.47887l8,0l0.00916,-0.00639l-8.02748,0l0.01832,0.00639zm18,54.536c0,0.808 -0.656,1.464 -1.464,1.464l-25.072,0c-0.808,0 -1.464,-0.656 -1.464,-1.464l0,-49.072c0,-0.808 0.656,-1.464 1.464,-1.464l3.268,0l3.268,0l2.04404,0.02591l0.01415,-4.00879c2.69215,0.00663 5.3843,0.01327 8.07645,0.0199l-0.04656,3.93708l1.91192,0.02591l6.536,0c0.808,0 1.464,0.656 1.464,1.464l0,49.072l0,-0.00001z" id="svg_1"/>
 </g>

</svg>